<svg width="567px" height="360px" viewBox="0 0 567 360" version="1.1" xmlns="http://www.w3.org/2000/svg" xmlns:xlink="http://www.w3.org/1999/xlink">
    <g stroke="none" stroke-width="1" fill="none" fill-rule="evenodd" opacity="0.08">
        <g transform="translate(-316.000000, -3825.000000)" fill="#6E6F6F" fill-rule="nonzero">
            <g transform="translate(50.000000, 3822.000000)">
                <g transform="translate(262.000000, 0.000000)">
                    <path d="M7.53150299,243.716916 L282.810654,5.69455078 C286.586046,2.43012691 292.190397,2.44926332 295.943409,5.73939341 L567.393941,243.710306 C571.514064,247.32227 571.960297,253.577182 568.394656,257.737458 L548.706278,280.709221 C545.112236,284.902634 538.799257,285.388519 534.605845,281.794477 C534.573924,281.767119 534.542176,281.739559 534.510602,281.7118 L289.390425,66.2056763 L289.390425,66.2056763 L40.3117824,281.821182 C36.1361312,285.435844 29.8208346,284.981072 26.2061725,280.805421 C26.195422,280.793002 26.1847022,280.780557 26.1740131,280.768085 L6.47928326,257.78891 C2.89631429,253.608418 3.36666863,247.318074 7.53150299,243.716916 Z"></path>
                    <path d="M56.5396192,321.993544 L279.459821,129.620373 C283.204263,126.389037 288.74845,126.380434 292.502902,129.600135 L516.854228,321.996823 C521.043597,325.589495 521.53044,331.896853 517.942019,336.089865 L498.213013,359.142891 C494.62892,363.34482 488.316296,363.835289 484.120275,360.244293 C484.117973,360.242323 484.115671,360.240352 484.119285,360.231482 L285.966527,190.338111 L285.966527,190.338111 L89.3289651,360.174251 C85.1492816,363.78425 78.8344965,363.322429 75.2244979,359.142745 C75.2146114,359.131299 75.2047508,359.11983 75.1949163,359.108338 L55.4753543,336.066347 C51.8948098,331.882539 52.3705898,325.591286 56.5396192,321.993544 Z"></path>
                </g>
            </g>
        </g>
    </g>
</svg>
