<?xml version="1.0" encoding="UTF-8"?>
<svg width="20px" height="20px" viewBox="0 0 20 20" version="1.1" xmlns="http://www.w3.org/2000/svg" xmlns:xlink="http://www.w3.org/1999/xlink">
    <!-- Generator: Sketch 63.1 (92452) - https://sketch.com -->
    <title>arrow symbol</title>
    <desc>Created with Sketch.</desc>
    <g stroke="none" stroke-width="1" fill="none" fill-rule="evenodd">
        <g transform="translate(-190.000000, -5163.000000)" fill="#333333">
            <g transform="translate(0.000000, 4635.000000)">
                <g transform="translate(0.000000, 98.000000)">
                    <g transform="translate(0.000000, 400.000000)">
                        <g transform="translate(200.000000, 40.000000) rotate(-360.000000) translate(-200.000000, -40.000000) translate(190.000000, 30.000000)">
                            <path d="M0.600158615,9.47418129 L9.27792421,0.727786418 C9.66690731,0.335726993 10.3000674,0.333233139 10.6921268,0.722216239 C10.698019,0.728062166 10.7038381,0.733981224 10.7095829,0.739972039 L19.0854792,9.47458088 C19.420884,9.82434994 19.457236,10.3642686 19.1717449,10.7558418 L18.8661002,11.1750572 C18.5407325,11.6213243 17.9151989,11.7193325 17.4689319,11.3939648 C17.4205665,11.3587022 17.3754648,11.3191685 17.3341698,11.2758397 L9.99971819,3.58015202 L9.99971819,3.58015202 L2.33121991,11.3097238 C1.94224762,11.701794 1.30908762,11.7043053 0.917017475,11.315333 C0.879282041,11.2778957 0.844591667,11.2375093 0.813276118,11.1945576 L0.502007009,10.7676279 C0.21272558,10.370856 0.254317344,9.82275769 0.600158615,9.47418129 Z"></path>
                            <path d="M0.600158615,17.3313241 L9.27792421,8.58492928 C9.66690731,8.19286985 10.3000674,8.190376 10.6921268,8.5793591 C10.698019,8.58520502 10.7038381,8.59112408 10.7095829,8.5971149 L19.0854792,17.3317237 C19.420884,17.6814928 19.457236,18.2214115 19.1717449,18.6129847 L18.8661002,19.0322001 C18.5407325,19.4784671 17.9151989,19.5764754 17.4689319,19.2511077 C17.4205665,19.2158451 17.3754648,19.1763114 17.3341698,19.1329825 L9.99971819,11.4372949 L9.99971819,11.4372949 L2.33121991,19.1668667 C1.94224762,19.5589369 1.30908762,19.5614482 0.917017475,19.1724759 C0.879282041,19.1350386 0.844591667,19.0946522 0.813276118,19.0517004 L0.502007009,18.6247707 C0.21272558,18.2279988 0.254317344,17.6799005 0.600158615,17.3313241 Z"></path>
                        </g>
                    </g>
                </g>
            </g>
        </g>
    </g>
</svg>
