<?xml version="1.0" encoding="utf-8"?>
<!-- Generator: Adobe Illustrator 23.0.2, SVG Export Plug-In . SVG Version: 6.00 Build 0)  -->
<svg version="1.1" xmlns="http://www.w3.org/2000/svg" xmlns:xlink="http://www.w3.org/1999/xlink" x="0px"
	 y="0px" viewBox="0 0 30 30" enable-background="new 0 0 30 30" xml:space="preserve">
<path fill-rule="evenodd" clip-rule="evenodd" fill="#505151" d="M15.5,6c-2.6,0-2.9,0-3.9,0.1
	c-1,0-1.7,0.2-2.3,0.4C8.7,6.7,8.1,7.1,7.6,7.6S6.7,8.7,6.5,9.3s-0.4,1.3-0.4,2.3C6,12.6,6,12.9,6,15.5s0,2.9,0.1,3.9
	c0,1,0.2,1.7,0.4,2.3c0.2,0.6,0.6,1.2,1.1,1.7s1.1,0.9,1.7,1.1s1.3,0.4,2.3,0.4s1.3,0.1,3.9,0.1s2.9,0,3.9-0.1c1,0,1.7-0.2,2.3-0.4
	c0.6-0.2,1.2-0.6,1.7-1.1s0.9-1.1,1.1-1.7s0.4-1.3,0.4-2.3s0.1-1.3,0.1-3.9s0-2.9-0.1-3.9c0-1-0.2-1.7-0.4-2.3
	c-0.2-0.6-0.6-1.2-1.1-1.7s-1.1-0.9-1.7-1.1s-1.3-0.4-2.3-0.4C18.4,6,18.1,6,15.5,6 M15.5,7.7c2.5,0,2.8,0,3.8,0.1
	c0.9,0,1.4,0.2,1.8,0.3c0.4,0.2,0.8,0.4,1.1,0.7c0.3,0.3,0.5,0.7,0.7,1.1c0.1,0.3,0.3,0.8,0.3,1.8s0.1,1.3,0.1,3.9
	c0,2.5,0,2.8-0.1,3.8c0,0.9-0.2,1.4-0.3,1.8c-0.2,0.4-0.4,0.8-0.7,1.1c-0.3,0.3-0.6,0.5-1.1,0.7c-0.3,0.1-0.8,0.3-1.8,0.3
	s-1.3,0.1-3.8,0.1s-2.8,0-3.8-0.1c-0.9,0-1.4-0.2-1.8-0.3c-0.4-0.2-0.8-0.4-1.1-0.7c-0.3-0.3-0.5-0.7-0.7-1.1
	c-0.1-0.3-0.3-0.8-0.3-1.8s-0.1-1.3-0.1-3.8s0-2.8,0.1-3.9c0-0.9,0.2-1.4,0.3-1.8c0.2-0.4,0.4-0.8,0.7-1.1s0.6-0.5,1.1-0.7
	c0.3-0.1,0.8-0.3,1.8-0.3C12.7,7.7,13,7.7,15.5,7.7 M15.5,18.7c-1.7,0-3.2-1.4-3.2-3.2s1.4-3.2,3.2-3.2s3.2,1.4,3.2,3.2
	S17.2,18.7,15.5,18.7 M15.5,10.6c-2.7,0-4.9,2.2-4.9,4.9s2.2,4.9,4.9,4.9s4.9-2.2,4.9-4.9S18.2,10.6,15.5,10.6 M21.7,10.4
	c0,0.6-0.5,1.1-1.1,1.1s-1.1-0.5-1.1-1.1s0.5-1.1,1.1-1.1S21.7,9.8,21.7,10.4"/>
</svg>
