<?xml version="1.0" encoding="utf-8"?>
<!-- Generator: Adobe Illustrator 23.0.2, SVG Export Plug-In . SVG Version: 6.00 Build 0)  -->
<svg version="1.1" xmlns="http://www.w3.org/2000/svg" xmlns:xlink="http://www.w3.org/1999/xlink" x="0px"
	 y="0px" viewBox="0 0 30 30" enable-background="new 0 0 30 30" xml:space="preserve">
<path fill-rule="evenodd" clip-rule="evenodd" fill="#505151" d="M27.5,9.8c0,0-0.3-1.7-1.1-2.5
	c-1-1.1-2.1-1.1-2.6-1.1c-3.5-0.3-9-0.3-9-0.3l0,0c0,0-5.4,0-9,0.3c-0.6,0-1.6,0-2.7,1.1c-0.8,0.8-1,2.5-1,2.5S2,11.8,2,13.9v1.9
	c0,2,0.3,4.1,0.3,4.1s0.3,1.7,1.1,2.5c1,1.1,2.3,1,2.9,1.1c2.1,0.2,8.8,0.3,8.8,0.3s5.4,0,9.1-0.3c0.5-0.1,1.6-0.1,2.6-1.1
	c0.8-0.8,1.1-2.5,1.1-2.5s0.3-2,0.3-4.1v-1.9C27.8,11.8,27.5,9.8,27.5,9.8z M12.2,18.4v-7.2l6.9,3.4L12.2,18.4z"/>
</svg>
