<svg height="30" viewBox="0 0 30 30" width="30" xmlns="http://www.w3.org/2000/svg"><path d="m6.38852459 7.72103004c-3.54098361.0751073-6.38852459 3.01931326-6.38852459 6.63948496 0 1.8025751.70819672 3.4549356 1.85901639 4.6416309 1.18032787 1.2317597 2.83278689 1.9978541 4.67704918 1.9978541 3.61475413 0 6.53606553-2.9742489 6.53606553-6.639485v-7.33047208c1.3868853 1.00643777 3.0836066 1.60729614 4.9278689 1.60729614v-3.60515022c-.3540984 0-.6934426-.03004292-1.0327869-.10515021-1.0180328-.22532189-1.9327869-.76609442-2.6114754-1.53218884-.7081967-.78111588-1.1803279-1.80257511-1.2688525-2.92918455v-.46566524h-.9737704-2.59672136v14.360515c0 1.667382-1.34262295 3.0343348-2.99508196 3.0343348-.9737705 0-1.8295082-.4656653-2.37540984-1.2017168-.39836066-.525751-.60491803-1.1716738-.60491803-1.8476394 0-1.6824035 1.34262295-3.0343348 2.99508196-3.0343348.30983607 0 .61967213.0450644.9.1351931v-3.66523602c-.35409836-.04506438-.69344262-.0751073-1.04754098-.06008584" transform="translate(6 5)"/></svg>