<?xml version="1.0" encoding="utf-8"?>
<!-- Generator: Adobe Illustrator 23.0.2, SVG Export Plug-In . SVG Version: 6.00 Build 0)  -->
<svg version="1.1" xmlns="http://www.w3.org/2000/svg" xmlns:xlink="http://www.w3.org/1999/xlink" x="0px"
	 y="0px" viewBox="0 0 30 30" enable-background="new 0 0 30 30" xml:space="preserve">
<path fill-rule="evenodd" clip-rule="evenodd" fill="#505151" d="M24,6H7C6.5,6,6,6.5,6,7v17c0,0.6,0.5,1,1,1
	h9.1v-7.3h-2.5v-2.9h2.5v-2.1c0-2.5,1.5-3.8,3.7-3.8c0.7,0,1.5,0,2.2,0.1v2.6h-1.5c-1.2,0-1.4,0.6-1.4,1.4v1.8H22l-0.4,2.9h-2.5V25
	H24c0.6,0,1-0.5,1-1V7C25,6.5,24.5,6,24,6z"/>
</svg>
