<?xml version="1.0" encoding="utf-8"?>
<!-- Generator: Adobe Illustrator 23.0.2, SVG Export Plug-In . SVG Version: 6.00 Build 0)  -->
<svg version="1.1" xmlns="http://www.w3.org/2000/svg" xmlns:xlink="http://www.w3.org/1999/xlink" x="0px"
	 y="0px" viewBox="0 0 30 30" enable-background="new 0 0 30 30" xml:space="preserve">
<path fill-rule="evenodd" clip-rule="evenodd" fill="#505151" d="M25,8.8c-0.7,0.2-1.4,0.5-2.2,0.7
	c0.7-0.5,1.4-1.3,1.7-2.2C23.8,7.7,22.9,8,22,8.2C21.3,7.5,20.3,7,19.1,7c-2.2,0-3.9,1.7-3.9,3.9c0,0.2,0,0.7,0.2,0.9
	c-3.2-0.2-6.1-1.7-8.1-4.1C7.1,8.3,6.7,9,6.7,9.7c0,1.3,0.7,2.6,1.7,3.2c-0.7,0-1.3-0.2-1.8-0.5l0,0c0,2,1.3,3.6,3.1,3.8
	c-0.2,0.2-0.5,0.2-0.9,0.2c-0.2,0-0.5,0-0.7,0c0.5,1.6,2,2.6,3.6,2.7c-1.3,1.1-3,1.7-4.8,1.7c-0.4,0-0.7,0-0.9,0
	c1.7,1.2,3.8,1.7,5.9,1.7c7.2,0,11.1-5.9,11.1-11.1c0-0.2,0-0.4,0-0.5C23.8,10.2,24.5,9.6,25,8.8"/>
</svg>
