<svg width="18px" height="18px" viewBox="0 0 18 18" version="1.1" xmlns="http://www.w3.org/2000/svg" xmlns:xlink="http://www.w3.org/1999/xlink"><g stroke="none" stroke-width="1" fill="none" fill-rule="evenodd"><g transform="translate(-262.000000, -1779.000000)" fill="#333333"><g transform="translate(1.000000, 1758.000000)"><g transform="translate(255.000000, 15.000000)"><path d="M15.4301648,6.86184381 C15.7936418,6.86184381 16.0882981,7.1565001 16.0882981,7.51997706 L16.0882981,7.51997706 L16.0882981,8.93026261 C17.1296997,9.22185946 17.8496409,10.1710773 17.8496409,11.2525328 C17.8496409,12.3339883 17.1296997,13.2832061 16.0882981,13.574803 L16.0882981,13.574803 L16.0882981,23.1224361 C16.0882981,23.4859131 15.7936418,23.7805694 15.4301648,23.7805694 C15.0666879,23.7805694 14.7720316,23.4859131 14.7720316,23.1224361 L14.7720316,23.1224361 L14.7720316,13.574803 C13.7328402,13.2806334 13.0150661,12.3325574 13.0138756,11.2525328 C13.0150661,10.1725082 13.7328402,9.22443225 14.7720316,8.93026261 L14.7720316,8.93026261 L14.7720316,7.51997706 C14.7720316,7.1565001 15.0666879,6.86184381 15.4301648,6.86184381 Z M9.27661892,6.85714286 C9.64009588,6.85714286 9.93475218,7.15179915 9.93475218,7.51527611 L9.93475218,7.51527611 L9.93475218,17.0629092 C10.9739436,17.3570789 11.6917177,18.3051548 11.6929082,19.3851794 C11.6917177,20.465204 10.9739436,21.41328 9.93475218,21.7074496 L9.93475218,21.7074496 L9.93475218,23.1177352 C9.93475218,23.4812121 9.64009588,23.7758684 9.27661892,23.7758684 C8.91314196,23.7758684 8.61848567,23.4812121 8.61848567,23.1177352 L8.61848567,23.1177352 L8.61848567,21.7074496 C7.57708406,21.4158528 6.85714286,20.466635 6.85714286,19.3851794 C6.85714286,18.3037239 7.57708406,17.3545061 8.61848567,17.0629092 L8.61848567,17.0629092 L8.61848567,7.51527611 C8.61848567,7.15179915 8.91314196,6.85714286 9.27661892,6.85714286 Z M21.5837108,6.85714286 C21.9471877,6.85714286 22.241844,7.15179915 22.241844,7.51527611 L22.241844,7.51527611 L22.241844,17.0629092 C23.2810354,17.3570789 23.9988095,18.3051548 24,19.3851794 C23.9988095,20.465204 23.2810354,21.41328 22.241844,21.7074496 L22.241844,21.7074496 L22.241844,23.1177352 C22.241844,23.3528636 22.1164045,23.5701311 21.9127774,23.6876953 C21.7091503,23.8052595 21.4582713,23.8052595 21.2546441,23.6876953 C21.051017,23.5701311 20.9255775,23.3528636 20.9255775,23.1177352 L20.9255775,23.1177352 L20.9255775,21.7074496 C19.8841759,21.4158528 19.1642347,20.466635 19.1642347,19.3851794 C19.1642347,18.3037239 19.8841759,17.3545061 20.9255775,17.0629092 L20.9255775,17.0629092 L20.9255775,7.51527611 C20.9255775,7.15179915 21.2202338,6.85714286 21.5837108,6.85714286 Z M9.27661892,18.2898577 C8.66909315,18.2898577 8.1765962,18.7823546 8.1765962,19.3898804 C8.1765962,19.9974062 8.66909315,20.4899031 9.27661892,20.4899031 C9.8841447,20.4899031 10.3766416,19.9974062 10.3766416,19.3898804 C10.3766416,18.7823546 9.8841447,18.2898577 9.27661892,18.2898577 Z M21.5837108,18.2898577 C20.976185,18.2898577 20.483688,18.7823546 20.483688,19.3898804 C20.483688,19.9974062 20.976185,20.4899031 21.5837108,20.4899031 C22.1912365,20.4899031 22.6837335,19.9974062 22.6837335,19.3898804 C22.6837335,18.7823546 22.1912365,18.2898577 21.5837108,18.2898577 Z M15.4301648,10.1478091 C14.8226391,10.1478091 14.3301421,10.6403061 14.3301421,11.2478319 C14.3301421,11.8553576 14.8226391,12.3478546 15.4301648,12.3478546 C16.0376906,12.3478546 16.5301876,11.8553576 16.5301876,11.2478319 C16.5301876,10.6403061 16.0376906,10.1478091 15.4301648,10.1478091 Z"></path></g></g></g></g></svg>
