<?xml version="1.0" encoding="UTF-8"?>
<svg width="275px" height="96px" viewBox="0 0 275 96" version="1.1" xmlns="http://www.w3.org/2000/svg" xmlns:xlink="http://www.w3.org/1999/xlink">
    <title>usf_f_h2_t_n_2c_rgb_cs3</title>
    <g id="🖥-Visual-Design" stroke="none" stroke-width="1" fill="none" fill-rule="evenodd">
        <g id="T01-Homepage_1200" transform="translate(-50.000000, -9537.000000)">
            <g id="footer" transform="translate(0.000000, 9477.000000)">
                <g id="usf_f_h2_t_n_2c_rgb_cs3" transform="translate(50.000000, 60.000000)">
                    <path d="M49.9174515,19.9420952 C49.9174515,19.9420952 48.9705679,19.1314286 47.9261773,20.1569524 C46.9137812,21.1474286 47.7121191,22.1470476 47.7121191,22.1470476 L56.140374,30.5767619 L47.7113573,39.008 C47.7113573,39.008 46.9000693,39.9550476 47.9261773,40.999619 C48.9180055,42.0121905 49.9174515,41.2137143 49.9174515,41.2137143 L60.5510388,30.5782857 L49.9174515,19.9420952" id="Fill-1" fill="#F5BC29"></path>
                    <path d="M4.53026316,30.5729524 L12.9554709,22.1455238 C12.9554709,22.1455238 13.7637119,21.2007619 12.7398892,20.1561905 C11.7488227,19.143619 10.7493767,19.9390476 10.7493767,19.9390476 L0.115027701,30.5691429 L0.118836565,30.5729524 L0.114265928,30.5775238 L10.748615,41.2053333 C10.748615,41.2053333 11.6962604,42.0152381 12.7398892,40.9897143 C13.7538089,39.9977143 12.9554709,38.9973333 12.9554709,38.9973333 L4.53026316,30.5729524" id="Fill-2" fill="#F5BC29"></path>
                    <path d="M40.7426593,48.1691429 C39.750831,47.1565714 38.7521468,47.9542857 38.7521468,47.9542857 L30.3277008,56.3794286 L21.9032548,47.9542857 C21.9032548,47.9542857 20.957133,47.143619 19.9127424,48.1691429 C18.9003463,49.1611429 19.6971607,50.16 19.6971607,50.16 L30.3246537,60.7977143 L30.3292244,60.791619 L30.3322715,60.7961905 L40.958241,50.16 C40.958241,50.16 41.7680055,49.2137143 40.7426593,48.1691429" id="Fill-3" fill="#F5BC29"></path>
                    <path d="M40.9643352,10.9897143 L30.3368421,0.352 L30.3322715,0.356571429 L30.3292244,0.352 L19.7017313,10.9897143 C19.7017313,10.9897143 18.8942521,11.936 19.9188366,12.9813333 C20.9091413,13.9954286 21.9085873,13.1954286 21.9085873,13.1954286 L30.3330332,4.77028571 L38.758241,13.1954286 C38.758241,13.1954286 39.7043629,14.0045714 40.7487535,12.9813333 C41.7611496,11.9893333 40.9643352,10.9897143 40.9643352,10.9897143" id="Fill-4" fill="#F5BC29"></path>
                    <path d="M48.3253463,34.120381 C49.2851801,33.0758095 49.0497922,32.0060952 49.0497922,32.0060952 L31.7651662,32.0060952 L31.7644044,49.296 C31.7644044,49.296 32.8339335,49.5299048 33.8775623,48.5714286 C34.9684211,47.5687619 34.8831025,46.3779048 34.8831025,46.3779048 L34.8831025,37.3371429 L43.7722299,46.2285714 C43.7722299,46.2285714 44.7198753,47.0384762 45.7635042,46.0137143 C46.776662,45.0201905 45.9790859,44.0213333 45.9790859,44.0213333 L37.084626,35.1253333 L46.132964,35.1253333 C46.132964,35.1253333 47.323615,35.2114286 48.3253463,34.120381" id="Fill-5" fill="#F5BC29"></path>
                    <path d="M28.9009003,32.0060952 L11.6155125,32.0060952 C11.6155125,32.0060952 11.3808864,33.0750476 12.3399584,34.1188571 C13.340928,35.2091429 14.5315789,35.1245714 14.5315789,35.1245714 L23.5700139,35.1245714 L14.6808864,44.0152381 C14.6808864,44.0152381 13.8718837,44.9615238 14.8972299,46.0053333 C15.8882964,47.0194286 16.8869806,46.2224762 16.8869806,46.2224762 L25.7814404,37.3257143 L25.7814404,46.376381 C25.7814404,46.376381 25.6968837,47.5672381 26.7877424,48.5699048 C27.8313712,49.528381 28.901662,49.2929524 28.901662,49.2929524 L28.9009003,32.0060952" id="Fill-6" fill="#F5BC29"></path>
                    <path d="M26.7885042,12.5782857 C25.6976454,13.5801905 25.782964,14.7718095 25.782964,14.7718095 L25.782964,23.8110476 L16.8930748,14.9211429 C16.8930748,14.9211429 15.9469529,14.1104762 14.9010388,15.136 C13.8894044,16.1287619 14.6869806,17.1268571 14.6869806,17.1268571 L23.5814404,26.0228571 L14.5323407,26.0220952 C14.5323407,26.0220952 13.3424515,25.9375238 12.3399584,27.0278095 C11.3801247,28.072381 11.6155125,29.143619 11.6155125,29.143619 L28.9009003,29.143619 L28.901662,11.8537143 C28.901662,11.8537143 27.8313712,11.6198095 26.7885042,12.5782857" id="Fill-7" fill="#F5BC29"></path>
                    <path d="M48.3253463,27.0285714 C47.323615,25.9382857 46.1322022,26.0228571 46.1322022,26.0228571 L37.0945291,26.0228571 L45.9844183,17.1314286 C45.9844183,17.1314286 46.7934211,16.1859048 45.7695983,15.1390476 C44.7762465,14.1272381 43.7768006,14.9257143 43.7768006,14.9257143 L34.8831025,23.8224762 L34.8823407,14.7710476 C34.8823407,14.7710476 34.9668975,13.5801905 33.8775623,12.5775238 C32.8331717,11.6182857 31.7644044,11.8537143 31.7644044,11.8537143 L31.7644044,29.143619 L49.0497922,29.1428571 C49.0497922,29.1428571 49.2851801,28.0731429 48.3253463,27.0285714" id="Fill-8" fill="#F5BC29"></path>
                    <path d="M73.599446,24.0411429 C69.3472299,24.0411429 66.8006233,21.3417143 66.8006233,17.0628571 L66.8006233,6.13790476 L69.1941136,6.13790476 L69.1941136,16.7580952 C69.1941136,19.8133333 70.5691136,21.8514286 73.599446,21.8514286 C76.5787396,21.8514286 78.0809557,20.0175238 78.0809557,16.8342857 L78.0809557,6.13790476 L80.474446,6.13790476 L80.474446,16.935619 C80.474446,21.3668571 77.851662,24.0411429 73.599446,24.0411429" id="Fill-9" fill="#FFFFFE"></path>
                    <polyline id="Fill-10" fill="#FFFFFE" points="99.4410665 23.7104762 89.790928 10.0342857 89.790928 23.7104762 87.5756925 23.7104762 87.5756925 6.13790476 89.7147507 6.13790476 99.033518 19.304381 99.033518 6.13790476 101.249515 6.13790476 101.249515 23.7104762 99.4410665 23.7104762"></polyline>
                    <polygon id="Fill-11" fill="#FFFFFE" points="108.935803 23.7097143 111.330055 23.7097143 111.330055 6.13790476 108.935803 6.13790476"></polygon>
                    <polyline id="Fill-12" fill="#FFFFFE" points="126.045222 23.7866667 123.906925 23.7866667 117.134003 6.46933333 119.527493 5.95961905 125.001593 20.5782857 130.374377 6.13790476 132.895083 6.13790476 126.045222 23.7866667"></polyline>
                    <polyline id="Fill-13" fill="#FFFFFE" points="138.163504 23.7104762 138.163504 6.13790476 147.635388 6.13790476 147.635388 8.32838095 140.556994 8.32838095 140.556994 13.4217143 146.055471 13.4217143 146.412742 15.6114286 140.556994 15.6114286 140.556994 21.5207619 147.891343 21.5207619 147.891343 23.7104762 138.163504 23.7104762"></polyline>
                    <path d="M159.194529,8.25295238 L156.902355,8.25295238 L156.902355,14.2872381 L158.938573,14.2872381 C161.255886,14.2872381 162.732202,13.2426667 162.732202,11.256381 C162.732202,9.34704762 161.536981,8.25295238 159.194529,8.25295238 Z M166.500693,23.3539048 L164.082825,23.8887619 L158.710042,16.2994286 L156.902355,16.2994286 L156.902355,23.7104762 L154.508864,23.7104762 L154.508864,6.13790476 L159.295083,6.13790476 C162.885319,6.13790476 165.125693,7.9207619 165.125693,11.1299048 C165.125693,13.7782857 163.573199,15.3577143 161.281025,15.9939048 L166.500693,23.3539048 L166.500693,23.3539048 Z" id="Fill-14" fill="#FFFFFE"></path>
                    <path d="M176.225485,23.9139048 C174.316482,23.9139048 172.609349,23.456 171.311288,22.768 L171.667798,20.3222857 C172.865305,21.1131429 174.519875,21.8255238 176.275762,21.8255238 C178.110873,21.8255238 179.408934,20.8579048 179.408934,19.152 C179.408934,17.5474286 178.695914,16.8845714 176.04723,15.688381 C172.737327,14.1859048 171.489543,13.0895238 171.489543,10.5699048 C171.489543,7.7432381 173.65374,5.9352381 176.83795,5.9352381 C178.542798,5.9352381 179.81572,6.34209524 180.834972,6.92647619 L180.453324,9.32114286 C179.484349,8.58285714 178.16115,8.02209524 176.760249,8.02209524 C174.748407,8.02209524 173.857895,9.09180952 173.857895,10.3908571 C173.857895,11.7409524 174.519875,12.3779048 177.193698,13.5992381 C180.604917,15.1535238 181.776524,16.3245714 181.776524,18.9737143 C181.776524,22.0038095 179.509488,23.9139048 176.225485,23.9139048" id="Fill-15" fill="#FFFFFE"></path>
                    <polygon id="Fill-16" fill="#FFFFFE" points="188.445083 23.7097143 190.840097 23.7097143 190.840097 6.13790476 188.445083 6.13790476"></polygon>
                    <polyline id="Fill-17" fill="#FFFFFE" points="204.613712 8.32838095 204.613712 23.7104762 202.218698 23.7104762 202.218698 8.32838095 196.618144 8.32838095 196.618144 6.13790476 210.010873 6.13790476 210.36662 8.32838095 204.613712 8.32838095"></polyline>
                    <polyline id="Fill-18" fill="#FFFFFE" points="222.714197 16.7321905 222.714197 23.7104762 220.321468 23.7104762 220.321468 16.7321905 214.108449 6.46933333 216.501939 5.95961905 221.543352 14.5409524 226.457548 6.13790476 229.104709 6.13790476 222.714197 16.7321905"></polyline>
                    <path d="M250.744391,7.99695238 C247.256233,7.99695238 245.117175,10.696381 245.117175,14.9241905 C245.117175,19.152 247.281371,21.8514286 250.744391,21.8514286 C254.23331,21.8514286 256.371607,19.152 256.371607,14.9241905 C256.371607,10.696381 254.206648,7.99695238 250.744391,7.99695238 Z M250.719252,24.0411429 C245.779917,24.0411429 242.648269,20.3740952 242.648269,14.9508571 C242.648269,9.49942857 245.830194,5.8072381 250.769529,5.8072381 C255.735526,5.8072381 258.842036,9.47428571 258.842036,14.8982857 C258.842036,20.3222857 255.685249,24.0411429 250.719252,24.0411429 L250.719252,24.0411429 Z" id="Fill-19" fill="#FFFFFE"></path>
                    <polyline id="Fill-20" fill="#FFFFFE" points="267.546814 8.32838095 267.546814 13.7020952 272.844183 13.7020952 273.199169 15.8925714 267.546814 15.8925714 267.546814 23.7104762 265.153324 23.7104762 265.153324 6.13790476 274.29536 6.13790476 274.29536 8.32838095 267.546814 8.32838095"></polyline>
                    <path d="M71.1297784,55.2190476 C69.2200139,55.2190476 67.5136427,54.7619048 66.2148199,54.0731429 L66.5720914,51.6281905 C67.7680748,52.4182857 69.4234072,53.1306667 71.1800554,53.1306667 C73.0136427,53.1306667 74.3124654,52.1638095 74.3124654,50.4571429 C74.3124654,48.8525714 73.599446,48.1904762 70.9507618,46.9935238 C67.6408587,45.4918095 66.3938366,44.3954286 66.3938366,41.8750476 C66.3938366,39.048381 68.5580332,37.239619 71.7407202,37.239619 C73.4470914,37.239619 74.7200139,37.6472381 75.7377424,38.232381 L75.3560942,40.6270476 C74.3886427,39.8887619 73.0646814,39.3287619 71.6637812,39.3287619 C69.6527008,39.3287619 68.7614266,40.3977143 68.7614266,41.6967619 C68.7614266,43.0460952 69.4234072,43.6838095 72.0972299,44.9051429 C75.5092105,46.4586667 76.6800554,47.6304762 76.6800554,50.2788571 C76.6800554,53.3097143 74.4145429,55.2190476 71.1297784,55.2190476" id="Fill-21" fill="#FFFFFE"></path>
                    <path d="M88.4677285,40.2194286 L85.6666898,47.6304762 L91.2939058,47.6304762 L88.4677285,40.2194286 Z M94.1718837,55.1931429 L92.1090028,49.744 L84.8523546,49.744 L82.865651,55.0148571 L80.4462604,55.0148571 L87.3212604,37.3668571 L89.7147507,37.3668571 L96.4884349,54.6841905 L94.1718837,55.1931429 L94.1718837,55.1931429 Z" id="Fill-22" fill="#FFFFFE"></path>
                    <polyline id="Fill-23" fill="#FFFFFE" points="113.23982 55.0148571 103.589681 41.3401905 103.589681 55.0148571 101.374446 55.0148571 101.374446 37.4430476 103.513504 37.4430476 112.833033 50.6095238 112.833033 37.4430476 115.048269 37.4430476 115.048269 55.0148571 113.23982 55.0148571"></polyline>
                    <polyline id="Fill-24" fill="#FFFFFE" points="131.721953 39.6335238 131.721953 45.0072381 137.01856 45.0072381 137.375069 47.1977143 131.721953 47.1977143 131.721953 55.0148571 129.328463 55.0148571 129.328463 37.4430476 138.469737 37.4430476 138.469737 39.6335238 131.721953 39.6335238"></polyline>
                    <path d="M148.730055,39.5573333 L146.437881,39.5573333 L146.437881,45.592381 L148.4741,45.592381 C150.791413,45.592381 152.26849,44.5485714 152.26849,42.5622857 C152.26849,40.6521905 151.072507,39.5573333 148.730055,39.5573333 Z M156.036981,54.6590476 L153.618352,55.1931429 L148.245568,47.6045714 L146.437881,47.6045714 L146.437881,55.0148571 L144.045152,55.0148571 L144.045152,37.4430476 L148.831371,37.4430476 C152.421607,37.4430476 154.661219,39.2259048 154.661219,42.4358095 C154.661219,45.0834286 153.109488,46.6628571 150.816551,47.2998095 L156.036981,54.6590476 L156.036981,54.6590476 Z" id="Fill-25" fill="#FFFFFE"></path>
                    <path d="M166.85644,40.2194286 L164.055402,47.6304762 L169.68338,47.6304762 L166.85644,40.2194286 Z M172.560596,55.1931429 L170.496953,49.744 L163.240305,49.744 L161.254363,55.0148571 L158.835734,55.0148571 L165.710734,37.3668571 L168.104224,37.3668571 L174.877909,54.6841905 L172.560596,55.1931429 L172.560596,55.1931429 Z" id="Fill-26" fill="#FFFFFE"></path>
                    <polyline id="Fill-27" fill="#FFFFFE" points="191.246884 55.0148571 181.596745 41.3401905 181.596745 55.0148571 179.38151 55.0148571 179.38151 37.4430476 181.52133 37.4430476 190.840097 50.6095238 190.840097 37.4430476 193.054571 37.4430476 193.054571 55.0148571 191.246884 55.0148571"></polyline>
                    <path d="M206.853324,55.3470476 C201.913227,55.3470476 198.73054,51.68 198.73054,46.2552381 C198.73054,40.8053333 201.965028,37.112381 206.903601,37.112381 C208.993144,37.112381 210.545637,37.6472381 211.895499,38.5645714 L211.538227,41.0095238 C210.265305,40.0411429 208.762327,39.3028571 206.878463,39.3028571 C203.314127,39.3028571 201.199446,42.0022857 201.199446,46.2300952 C201.199446,50.4571429 203.339266,53.1306667 206.878463,53.1306667 C208.762327,53.1306667 210.417659,52.3931429 211.81856,51.3737143 L212.174307,53.6411429 C210.82597,54.6339048 208.865166,55.3470476 206.853324,55.3470476" id="Fill-28" fill="#FFFFFE"></path>
                    <polygon id="Fill-29" fill="#FFFFFE" points="218.206787 55.0148571 220.600277 55.0148571 220.600277 37.4430476 218.206787 37.4430476"></polygon>
                    <path d="M231.548476,55.2190476 C229.63795,55.2190476 227.933102,54.7619048 226.635042,54.0731429 L226.991551,51.6281905 C228.186773,52.4182857 229.842105,53.1306667 231.598753,53.1306667 C233.432341,53.1306667 234.730402,52.1638095 234.730402,50.4571429 C234.730402,48.8525714 234.017382,48.1904762 231.370983,46.9935238 C228.059557,45.4918095 226.812535,44.3954286 226.812535,41.8750476 C226.812535,39.048381 228.977493,37.239619 232.159418,37.239619 C233.865789,37.239619 235.139474,37.6472381 236.157202,38.232381 L235.774792,40.6270476 C234.807341,39.8887619 233.482618,39.3287619 232.083241,39.3287619 C230.071399,39.3287619 229.180886,40.3977143 229.180886,41.6967619 C229.180886,43.0460952 229.842105,43.6838095 232.515166,44.9051429 C235.927909,46.4586667 237.098753,47.6304762 237.098753,50.2788571 C237.098753,53.3097143 234.832479,55.2190476 231.548476,55.2190476" id="Fill-30" fill="#FFFFFE"></path>
                    <path d="M249.396053,55.3470476 C244.455956,55.3470476 241.273269,51.68 241.273269,46.2552381 C241.273269,40.8053333 244.506994,37.112381 249.44633,37.112381 C251.534349,37.112381 253.088366,37.6472381 254.437465,38.5645714 L254.080956,41.0095238 C252.807271,40.0411429 251.305817,39.3028571 249.421191,39.3028571 C245.856856,39.3028571 243.743698,42.0022857 243.743698,46.2300952 C243.743698,50.4571429 245.881994,53.1306667 249.421191,53.1306667 C251.305817,53.1306667 252.960388,52.3931429 254.361288,51.3737143 L254.717798,53.6411429 C253.367936,54.6339048 251.406371,55.3470476 249.396053,55.3470476" id="Fill-31" fill="#FFFFFE"></path>
                    <path d="M266.172576,39.3028571 C262.68518,39.3028571 260.54536,42.0022857 260.54536,46.2300952 C260.54536,50.4571429 262.710319,53.1565714 266.172576,53.1565714 C269.662258,53.1565714 271.799792,50.4571429 271.799792,46.2300952 C271.799792,42.0022857 269.635596,39.3028571 266.172576,39.3028571 Z M266.147438,55.3470476 C261.208864,55.3470476 258.076454,51.68 258.076454,46.2552381 C258.076454,40.8053333 261.259141,37.112381 266.197715,37.112381 C271.164474,37.112381 274.270222,40.7801905 274.270222,46.2041905 C274.270222,51.6281905 271.113435,55.3470476 266.147438,55.3470476 L266.147438,55.3470476 Z" id="Fill-32" fill="#FFFFFE"></path>
                    <path d="M5.70720222,95.5390476 C2.64487535,95.5390476 0.671121884,93.2662857 0.671121884,89.9017143 C0.671121884,86.5241905 2.67686981,84.2339048 5.73919668,84.2339048 C7.03344875,84.2339048 7.99632964,84.5653333 8.83351801,85.1321905 L8.61260388,86.6491429 C7.8234072,86.0487619 6.891759,85.5908571 5.72319945,85.5908571 C3.51253463,85.5908571 2.20304709,87.2647619 2.20304709,89.8857143 C2.20304709,92.5059048 3.52853186,94.1653333 5.72319945,94.1653333 C6.891759,94.1653333 7.91786704,93.7066667 8.78552632,93.0758095 L9.00720222,94.4807619 C8.17001385,95.096381 6.95498615,95.5390476 5.70720222,95.5390476" id="Fill-33" fill="#FFFFFE"></path>
                    <polyline id="Fill-34" fill="#FFFFFE" points="19.8060942 95.3333333 19.8060942 90.312381 14.2946676 90.312381 14.2946676 95.3333333 12.8114958 95.3333333 12.8114958 84.4388571 14.2946676 84.4388571 14.2946676 88.9539048 19.8060942 88.9539048 19.8060942 84.4388571 21.2892659 84.4388571 21.2892659 95.3333333 19.8060942 95.3333333"></polyline>
                    <path d="M29.2932133,86.1592381 L27.5556094,90.7542857 L31.0452909,90.7542857 L29.2932133,86.1592381 Z M32.8293629,95.4438095 L31.5503463,92.0655238 L27.050554,92.0655238 L25.8195291,95.3333333 L24.3195983,95.3333333 L28.5824792,84.391619 L30.0664127,84.391619 L34.2660665,95.127619 L32.8293629,95.4438095 L32.8293629,95.4438095 Z" id="Fill-35" fill="#FFFFFE"></path>
                    <polyline id="Fill-36" fill="#FFFFFE" points="44.7328255 95.3333333 38.7490997 86.8525714 38.7490997 95.3333333 37.3748615 95.3333333 37.3748615 84.4388571 38.7018698 84.4388571 44.4806787 92.6011429 44.4806787 84.4388571 45.8526316 84.4388571 45.8526316 95.3333333 44.7328255 95.3333333"></polyline>
                    <path d="M54.9939058,95.5390476 C51.5362188,95.5390476 49.6896814,93.2662857 49.6896814,89.9017143 C49.6896814,86.5241905 51.6154432,84.2339048 54.8674515,84.2339048 C56.3201524,84.2339048 57.3310249,84.5965714 58.1834488,85.1649524 L57.9465374,86.680381 C57.1413435,86.0487619 56.1304709,85.5908571 54.8522161,85.5908571 C52.467867,85.5908571 51.2208449,87.2647619 51.2208449,89.8857143 C51.2208449,92.5059048 52.4998615,94.1653333 54.9939058,94.1653333 C55.9415512,94.1653333 56.5722992,93.976381 57.2038089,93.6281905 L57.2038089,90.7382857 L54.6937673,90.7382857 L54.4888504,89.3813333 L58.6725069,89.3813333 L58.6725069,94.4807619 C57.7408587,95.0819048 56.4306094,95.5390476 54.9939058,95.5390476" id="Fill-37" fill="#FFFFFE"></path>
                    <polyline id="Fill-38" fill="#FFFFFE" points="62.7921745 95.3333333 62.7921745 84.4388571 68.6654432 84.4388571 68.6654432 85.7958095 64.276108 85.7958095 64.276108 88.9539048 67.6865651 88.9539048 67.9074792 90.312381 64.276108 90.312381 64.276108 93.976381 68.8231302 93.976381 68.8231302 95.3333333 62.7921745 95.3333333"></polyline>
                    <polyline id="Fill-39" fill="#FFFFFE" points="81.2788781 85.7958095 81.2788781 95.3333333 79.7949446 95.3333333 79.7949446 85.7958095 76.3212604 85.7958095 76.3212604 84.4388571 84.6253463 84.4388571 84.8470222 85.7958095 81.2788781 85.7958095"></polyline>
                    <polyline id="Fill-40" fill="#FFFFFE" points="94.6815097 95.3333333 94.6815097 90.312381 89.1723684 90.312381 89.1723684 95.3333333 87.6876731 95.3333333 87.6876731 84.4388571 89.1723684 84.4388571 89.1723684 88.9539048 94.6815097 88.9539048 94.6815097 84.4388571 96.166205 84.4388571 96.166205 95.3333333 94.6815097 95.3333333"></polyline>
                    <polyline id="Fill-41" fill="#FFFFFE" points="100.442798 95.3333333 100.442798 84.4388571 106.316828 84.4388571 106.316828 85.7958095 101.928255 85.7958095 101.928255 88.9539048 105.33795 88.9539048 105.559626 90.312381 101.928255 90.312381 101.928255 93.976381 106.474515 93.976381 106.474515 95.3333333 100.442798 95.3333333"></polyline>
                    <polyline id="Fill-42" fill="#FFFFFE" points="125.355817 95.3333333 124.108795 95.3333333 121.156163 86.5074286 118.203532 95.3333333 116.972507 95.3333333 113.751731 84.6445714 115.20367 84.327619 117.666482 92.9973333 120.446191 84.4388571 121.930886 84.4388571 124.709072 92.9973333 127.123892 84.4388571 128.63982 84.4388571 125.355817 95.3333333"></polyline>
                    <path d="M135.99626,85.5908571 C133.832825,85.5908571 132.507341,87.2647619 132.507341,89.8857143 C132.507341,92.5059048 133.849584,94.1813333 135.99626,94.1813333 C138.158934,94.1813333 139.48518,92.5059048 139.48518,89.8857143 C139.48518,87.2647619 138.142936,85.5908571 135.99626,85.5908571 Z M135.979501,95.5390476 C132.917175,95.5390476 130.975416,93.2662857 130.975416,89.9017143 C130.975416,86.5241905 132.949169,84.2339048 136.010734,84.2339048 C139.090582,84.2339048 141.017105,86.5074286 141.017105,89.8689524 C141.017105,93.2350476 139.057825,95.5390476 135.979501,95.5390476 L135.979501,95.5390476 Z" id="Fill-43" fill="#FFFFFE"></path>
                    <path d="M147.757271,85.7485714 L146.337327,85.7485714 L146.337327,89.4910476 L147.599584,89.4910476 C149.036288,89.4910476 149.952701,88.8434286 149.952701,87.6099048 C149.952701,86.4289524 149.209972,85.7485714 147.757271,85.7485714 Z M152.287535,95.1131429 L150.788366,95.4438095 L147.457895,90.7382857 L146.337327,90.7382857 L146.337327,95.3333333 L144.852632,95.3333333 L144.852632,84.4388571 L147.819737,84.4388571 C150.047922,84.4388571 151.436634,85.544381 151.436634,87.5344762 C151.436634,89.175619 150.47223,90.1546667 149.050762,90.5493333 L152.287535,95.1131429 L152.287535,95.1131429 Z" id="Fill-44" fill="#FFFFFE"></path>
                    <polyline id="Fill-45" fill="#FFFFFE" points="155.506787 95.3333333 155.506787 84.4388571 156.992244 84.4388571 156.992244 93.976381 160.924515 93.976381 161.12867 95.3333333 155.506787 95.3333333"></polyline>
                    <path d="M167.759903,85.7798095 L166.037535,85.7798095 L166.037535,93.992381 L167.713435,93.992381 C170.333934,93.992381 171.911565,92.6651429 171.911565,89.8857143 C171.911565,87.1550476 170.253186,85.7798095 167.759903,85.7798095 Z M167.647922,95.3333333 L164.553601,95.3333333 L164.553601,84.4388571 L167.713435,84.4388571 C171.501731,84.4388571 173.44349,86.680381 173.44349,89.8689524 C173.44349,93.1070476 171.389751,95.3333333 167.647922,95.3333333 L167.647922,95.3333333 Z" id="Fill-46" fill="#FFFFFE"></path>
                    <polyline id="Fill-47" fill="#FFFFFE" points="183.529363 85.7958095 183.529363 89.127619 186.812604 89.127619 187.035042 90.4853333 183.529363 90.4853333 183.529363 95.3333333 182.046191 95.3333333 182.046191 84.4388571 187.714543 84.4388571 187.714543 85.7958095 183.529363 85.7958095"></polyline>
                    <path d="M194.153809,85.7485714 L192.733864,85.7485714 L192.733864,89.4910476 L193.996122,89.4910476 C195.432825,89.4910476 196.349238,88.8434286 196.349238,87.6099048 C196.349238,86.4289524 195.608033,85.7485714 194.153809,85.7485714 Z M198.685596,95.1131429 L197.186427,95.4438095 L193.854432,90.7382857 L192.733864,90.7382857 L192.733864,95.3333333 L191.249931,95.3333333 L191.249931,84.4388571 L194.217798,84.4388571 C196.442936,84.4388571 197.833172,85.544381 197.833172,87.5344762 C197.833172,89.175619 196.869529,90.1546667 195.448823,90.5493333 L198.685596,95.1131429 L198.685596,95.1131429 Z" id="Fill-48" fill="#FFFFFE"></path>
                    <path d="M206.183726,85.5908571 C204.021814,85.5908571 202.694044,87.2647619 202.694044,89.8857143 C202.694044,92.5059048 204.03705,94.1813333 206.183726,94.1813333 C208.346399,94.1813333 209.672645,92.5059048 209.672645,89.8857143 C209.672645,87.2647619 208.331163,85.5908571 206.183726,85.5908571 Z M206.169252,95.5390476 C203.105402,95.5390476 201.162119,93.2662857 201.162119,89.9017143 C201.162119,86.5241905 203.136634,84.2339048 206.200485,84.2339048 C209.279571,84.2339048 211.203047,86.5074286 211.203047,89.8689524 C211.203047,93.2350476 209.246814,95.5390476 206.169252,95.5390476 L206.169252,95.5390476 Z" id="Fill-49" fill="#FFFFFE"></path>
                    <polyline id="Fill-50" fill="#FFFFFE" points="225.255471 95.3333333 224.577493 86.663619 221.133518 95.3813333 220.015235 95.3813333 216.572022 86.663619 215.90928 95.3333333 214.519806 95.3333333 215.387465 84.4388571 217.218767 84.4388571 220.614751 93.3752381 224.008449 84.4388571 225.822992 84.4388571 226.676177 95.3333333 225.255471 95.3333333"></polyline>
                    <polyline id="Fill-51" fill="#FFFFFE" points="242.398407 95.3333333 242.398407 90.312381 236.889266 90.312381 236.889266 95.3333333 235.404571 95.3333333 235.404571 84.4388571 236.889266 84.4388571 236.889266 88.9539048 242.398407 88.9539048 242.398407 84.4388571 243.882341 84.4388571 243.882341 95.3333333 242.398407 95.3333333"></polyline>
                    <polyline id="Fill-52" fill="#FFFFFE" points="248.161219 95.3333333 248.161219 84.4388571 254.033726 84.4388571 254.033726 85.7958095 249.645152 85.7958095 249.645152 88.9539048 253.055609 88.9539048 253.275 90.312381 249.645152 90.312381 249.645152 93.976381 254.192936 93.976381 254.192936 95.3333333 248.161219 95.3333333"></polyline>
                    <path d="M260.648199,85.7485714 L259.228255,85.7485714 L259.228255,89.4910476 L260.490512,89.4910476 C261.927216,89.4910476 262.843629,88.8434286 262.843629,87.6099048 C262.843629,86.4289524 262.1009,85.7485714 260.648199,85.7485714 Z M265.179986,95.1131429 L263.680817,95.4438095 L260.348823,90.7382857 L259.228255,90.7382857 L259.228255,95.3333333 L257.742798,95.3333333 L257.742798,84.4388571 L260.712188,84.4388571 C262.937327,84.4388571 264.327562,85.544381 264.327562,87.5344762 C264.327562,89.175619 263.36392,90.1546667 261.943213,90.5493333 L265.179986,95.1131429 L265.179986,95.1131429 Z" id="Fill-53" fill="#FFFFFE"></path>
                    <polyline id="Fill-54" fill="#FFFFFE" points="268.320776 95.3333333 268.320776 84.4388571 274.192521 84.4388571 274.192521 85.7958095 269.805471 85.7958095 269.805471 88.9539048 273.215166 88.9539048 273.436842 90.312381 269.805471 90.312381 269.805471 93.976381 274.351731 93.976381 274.351731 95.3333333 268.320776 95.3333333"></polyline>
                    <polygon id="Fill-55" fill="#FFFFFE" points="0.652077562 70.8464762 274.346399 70.8464762 274.346399 70.2232381 0.652077562 70.2232381"></polygon>
                </g>
            </g>
        </g>
    </g>
</svg>