<svg height="24" viewBox="0 0 19 24" width="19" xmlns="http://www.w3.org/2000/svg"><path d="m17.309 17.6432727v-16.07781815h-15.70517647v20.30181815h11.37652937v-4.224zm-2.7248235 1.5665455v1.5501818l1.5892941-1.5501818zm4.3297647-19.2098182v18.7505455l-4.7991765 4.6832727h-14.1147647v-23.4338182zm-6.194 12.0687273-1.1914118-3.7407273h-1.92905881l2.24870591 6.5389091h1.7424117l2.2487059-6.5389091h-1.9290588zm-7.80341179-.4712728c0 1.1792728.67170588 1.7072728 1.33670588 1.7072728.5912353 0 .9712353-.2803637 1.1992353-.8858182l.04470588-.1178182 1.70776471.4636364-.038.1309091c-.37441177 1.3167272-1.40264706 2.0432727-2.89470589 2.0432727-1.62617647 0-3.268-1.0341818-3.268-3.3414546 0-1.60909086 1.02264706-3.34036359 3.268-3.34036359 1.52558824 0 2.58847059.73854545 2.91370589 2.02799999l.03352941.1276364-1.72229412.4821818-.04470588-.1189091c-.22576471-.5967273-.61694118-.88581818-1.1992353-.88581818-.665 0-1.33670588.52690908-1.33670588 1.70727268z" fill="#00543c" fill-rule="evenodd"/></svg>