<svg enable-background="new 0 0 20 19.7" viewBox="0 0 20 19.7" xmlns="http://www.w3.org/2000/svg"><path d="m10.8 2.4v-1.6c0-.5-.4-.8-.8-.8s-.8.3-.8.8v1.6c-1.2.4-2 1.5-2 2.7 0 1.3.8 2.4 2.1 2.7v11.2c0 .4.3.8.8.8.4 0 .8-.3.8-.8v-11.2c1.2-.3 2.1-1.4 2.1-2.7-.2-1.2-1-2.3-2.2-2.7zm-.8 4c-.7 0-1.3-.6-1.3-1.3s.6-1.3 1.3-1.3 1.3.6 1.3 1.3-.6 1.3-1.3 1.3zm-6.4 5.5v-11.1c0-.5-.4-.8-.8-.8s-.7.3-.7.8v11.1c-1.3.3-2.1 1.5-2.1 2.7 0 1.3.8 2.4 2.1 2.7v1.7c0 .4.3.8.8.8.4 0 .8-.3.8-.8v-1.6c1.2-.3 2-1.4 2.1-2.7-.2-1.3-1-2.5-2.2-2.8zm-.8 4c-.7 0-1.3-.6-1.3-1.3s.6-1.3 1.3-1.3 1.3.6 1.3 1.3-.6 1.3-1.3 1.3zm15.1-4v-11.1c0-.4-.3-.8-.8-.8-.4 0-.8.3-.8.8v11.1c-1.2.3-2.1 1.4-2.1 2.7s.8 2.4 2.1 2.7v1.7c0 .3.1.5.4.7.2.1.5.1.8 0 .2-.1.4-.4.4-.7v-1.6c1.2-.3 2-1.4 2.1-2.7 0-1.3-.8-2.5-2.1-2.8zm-.7 4c-.7 0-1.3-.6-1.3-1.3s.6-1.3 1.3-1.3 1.3.6 1.3 1.3-.6 1.3-1.3 1.3z"/></svg>