<?xml version="1.0" encoding="utf-8"?>
<!-- Generator: Adobe Illustrator 26.0.3, SVG Export Plug-In . SVG Version: 6.00 Build 0)  -->
<svg version="1.1" id="menu" xmlns="http://www.w3.org/2000/svg" xmlns:xlink="http://www.w3.org/1999/xlink" x="0px" y="0px"
	 viewBox="0 0 35 25" enable-background="new 0 0 35 25" xml:space="preserve">
<path d="M0,1.5C0,0.7,0.7,0,1.5,0h32C34.3,0,35,0.7,35,1.5S34.3,3,33.5,3h-32C0.7,3,0,2.3,0,1.5z M33.5,11h-32
	C0.7,11,0,11.7,0,12.5S0.7,14,1.5,14h32c0.8,0,1.5-0.7,1.5-1.5S34.3,11,33.5,11z M33.5,22h-32C0.7,22,0,22.7,0,23.5S0.7,25,1.5,25
	h32c0.8,0,1.5-0.7,1.5-1.5S34.3,22,33.5,22z"/>
</svg>
