<?xml version="1.0" encoding="utf-8"?>
<!-- Generator: Adobe Illustrator 26.0.3, SVG Export Plug-In . SVG Version: 6.00 Build 0)  -->
<svg version="1.1" id="slide_x5F_indicator" xmlns="http://www.w3.org/2000/svg" xmlns:xlink="http://www.w3.org/1999/xlink"
	 x="0px" y="0px" viewBox="0 0 16 16" enable-background="new 0 0 16 16" xml:space="preserve">
<path id="fill" d="M11,2H5C3.3,2,2,3.3,2,5v6c0,1.7,1.3,3,3,3h6c1.7,0,3-1.3,3-3V5C14,3.3,12.7,2,11,2z"/>
<path id="box" d="M11,0H5C2.2,0,0,2.2,0,5v6c0,2.8,2.2,5,5,5h6c2.8,0,5-2.2,5-5V5C16,2.2,13.8,0,11,0z M14,11c0,1.7-1.3,3-3,3H5
	c-1.7,0-3-1.3-3-3V5c0-1.7,1.3-3,3-3h6c1.7,0,3,1.3,3,3V11z"/>
</svg>
