<svg version="1.1" xmlns="http://www.w3.org/2000/svg" xmlns:xlink="http://www.w3.org/1999/xlink" x="0px" y="0px"
	 viewBox="0 0 23 20" enable-background="new 0 0 23 20" xml:space="preserve">
<path fill="#FFFFFF" d="M17,6c0-0.6,0.4-1,1-1s1,0.4,1,1v8c0,0.6-0.4,1-1,1s-1-0.4-1-1V6z M21,4c0-0.6,0.4-1,1-1s1,0.4,1,1v12
	c0,0.6-0.4,1-1,1s-1-0.4-1-1V4z"/>
<path fill="#FFFFFF" d="M13,0h-0.6c-0.5,0-0.9,0.2-1.3,0.5L5.6,5H2C0.9,5,0,5.9,0,7v6c0,1.1,0.9,2,2,2h3.6l5.4,4.5
	c0.4,0.3,0.8,0.5,1.3,0.5H13c1.1,0,2-0.9,2-2V2C15,0.9,14.1,0,13,0z M13,18h-0.6l-5.7-4.8C6.5,13.1,6.2,13,6,13H2V7h4
	c0.2,0,0.5-0.1,0.6-0.2L12.4,2H13V18z"/>
</svg>
