<?xml version="1.0" encoding="utf-8"?>
<!-- Generator: Adobe Illustrator 26.0.3, SVG Export Plug-In . SVG Version: 6.00 Build 0)  -->
<svg version="1.1" id="USF_x5F_logo" xmlns="http://www.w3.org/2000/svg" xmlns:xlink="http://www.w3.org/1999/xlink" x="0px"
	 y="0px" viewBox="0 0 300 65.7" enable-background="new 0 0 300 65.7" xml:space="preserve">
<path id="icon" d="M54.5,21.3l11.6,11.5L54.5,44.4c0,0-1.1,0.9-2.2-0.2c-1.1-1.1-0.2-2.2-0.2-2.2l9.2-9.2l-9.2-9.2
	c0,0-0.9-1.1,0.2-2.2C53.5,20.4,54.5,21.3,54.5,21.3z M4.8,32.8l9.2-9.2c0,0,0.9-1-0.2-2.2c-1.1-1.1-2.2-0.2-2.2-0.2L0,32.8l0,0l0,0
	l11.6,11.5c0,0,1,0.9,2.2-0.2c1.1-1.1,0.2-2.2,0.2-2.2L4.8,32.8z M42.3,51.7l-9.2,9.1l-9.2-9.1c0,0-1-0.9-2.2,0.2
	c-1.1,1.1-0.2,2.2-0.2,2.2l11.6,11.6l0,0l0,0l11.6-11.5c0,0,0.9-1-0.2-2.2C43.4,50.9,42.3,51.7,42.3,51.7z M23.8,14L33,4.9l9.2,9.1
	c0,0,1,0.9,2.2-0.2c1.1-1.1,0.2-2.2,0.2-2.2L33.1,0l0,0l0,0L21.4,11.6c0,0-0.9,1,0.2,2.2C22.8,14.8,23.8,14,23.8,14z M40.5,37.8h9.9
	c0,0,1.3,0.1,2.4-1.1c1-1.1,0.8-2.3,0.8-2.3h-19v18.8c0,0,1.2,0.3,2.3-0.8C38.1,51.3,38,50,38,50v-9.8l9.7,9.7c0,0,1,0.9,2.2-0.2
	c1.1-1.1,0.2-2.2,0.2-2.2L40.5,37.8z M28.1,50c0,0-0.1,1.3,1.1,2.4c1.1,1,2.3,0.8,2.3,0.8V34.4H12.6c0,0-0.3,1.2,0.8,2.3
	c1.1,1.2,2.4,1.1,2.4,1.1h9.9L16,47.5c0,0-0.9,1,0.2,2.2c1.1,1.1,2.2,0.2,2.2,0.2l9.7-9.7C28.1,40.2,28.1,50,28.1,50z M25.7,27.9
	h-9.9c0,0-1.3-0.1-2.4,1.1c-1.1,1.1-0.8,2.3-0.8,2.3h18.9V12.5c0,0-1.2-0.3-2.3,0.8c-1.2,1.1-1.1,2.4-1.1,2.4v9.8l-9.7-9.7
	c0,0-1-0.9-2.2,0.2c-1.1,1.2-0.3,2.2-0.3,2.2L25.7,27.9z M38,15.7c0,0,0.1-1.3-1.1-2.4c-1.1-1-2.3-0.8-2.3-0.8v18.8h18.9
	c0,0,0.3-1.2-0.8-2.3c-1.1-1.2-2.4-1.1-2.4-1.1h-9.9l9.7-9.7c0,0,0.9-1-0.2-2.2c-1.1-1.1-2.2-0.2-2.2-0.2L38,25.5V15.7z"/>
<path id="wordmark" d="M141.4,59.4h2.6v-8.5h6.2l-0.4-2.4H144v-5.8h7.4v-2.4h-10V59.4z M142.5,6.3L136.6,22l-6-15.9L128,6.7
	l7.4,18.8h2.3l7.5-19.2C145.2,6.3,142.5,6.3,142.5,6.3z M161.7,23h-8v-6.4h6.4l-0.4-2.4h-6V8.7h7.7V6.3H151v19.1h10.6L161.7,23
	L161.7,23z M164.9,51l5.7,8l-2.6,0.6l-5.9-8.2h-2v8h-2.6V40.3h5.2c3.9,0,6.4,1.9,6.4,5.4C169.1,48.6,167.4,50.3,164.9,51z
	 M162.3,49.2c2.5,0,4.2-1.1,4.2-3.3c0-2.1-1.3-3.3-3.9-3.3h-2.5v6.6H162.3z M121.7,6.3h-2.6v19.1h2.6V6.3z M87.9,6.3h-2.6v11.6
	c0,3.5-1.6,5.4-4.9,5.4s-4.8-2.2-4.8-5.5V6.3H73v11.9c0,4.6,2.8,7.6,7.4,7.6c4.7,0,7.5-2.9,7.5-7.7V6.3z M78.8,48.4
	c-2.9-1.3-3.7-2-3.7-3.5c0-1.4,1-2.6,3.2-2.6c1.5,0,3,0.6,4,1.4l0.4-2.6c-1.1-0.6-2.5-1.1-4.4-1.1c-3.5,0-5.9,2-5.9,5
	c0,2.7,1.4,3.9,5,5.6c2.9,1.3,3.7,2,3.7,3.8c0,1.9-1.4,2.9-3.4,2.9c-1.9,0-3.7-0.8-5-1.6l-0.4,2.7c1.4,0.7,3.3,1.2,5.4,1.2
	c3.6,0,6.1-2.1,6.1-5.4C83.8,51.4,82.5,50.1,78.8,48.4z M98,40.2l7.4,18.8l-2.5,0.6l-2.3-5.9h-7.9l-2.2,5.7h-2.6l7.5-19.2H98z
	 M99.8,51.4l-3.1-8l-3.1,8H99.8z M123.3,54.6l-10.2-14.3h-2.3v19.1h2.4V44.5l10.6,14.8h2v-19h-2.4L123.3,54.6L123.3,54.6z
	 M108.2,20.6L98,6.3h-2.3v19.1h2.4V10.5l10.6,14.9h2V6.3h-2.4L108.2,20.6L108.2,20.6z M208.7,6.3h-2.6v19.1h2.6V6.3z M272.8,57.3
	c-3.9,0-6.2-2.9-6.2-7.5s2.3-7.5,6.2-7.5c2.1,0,3.7,0.8,5.1,1.9l0.4-2.7c-1.5-1-3.2-1.6-5.5-1.6c-5.4,0-8.9,4-8.9,9.9
	s3.5,9.9,8.9,9.9c2.2,0,4.3-0.8,5.8-1.9l-0.4-2.5C276.7,56.5,274.8,57.3,272.8,57.3z M254.3,48.4c-2.9-1.3-3.7-2-3.7-3.5
	c0-1.4,1-2.6,3.2-2.6c1.5,0,3,0.6,4,1.4l0.4-2.6c-1.1-0.6-2.5-1.1-4.4-1.1c-3.5,0-5.9,2-5.9,5c0,2.7,1.4,3.9,5,5.6
	c2.9,1.3,3.7,2,3.7,3.8c0,1.9-1.4,2.9-3.4,2.9c-1.9,0-3.7-0.8-5-1.6l-0.4,2.7c1.4,0.7,3.3,1.2,5.4,1.2c3.6,0,6.1-2.1,6.1-5.4
	C259.3,51.4,258,50.1,254.3,48.4z M247.7,6.3l-5.4,9.1l-5.5-9.3l-2.6,0.6l6.8,11.1v7.6h2.6v-7.6l7-11.5
	C250.6,6.3,247.7,6.3,247.7,6.3z M290,6.3v19.1h2.6v-8.5h6.2l-0.4-2.4h-5.8V8.7h7.4V6.3H290z M283.1,15.8c0,5.9-3.5,9.9-8.9,9.9
	s-8.8-4-8.8-9.9s3.5-9.9,8.9-9.9C279.7,6,283.1,9.9,283.1,15.8z M280.4,15.9c0-4.6-2.4-7.5-6.2-7.5c-3.8,0-6.2,2.9-6.2,7.5
	s2.4,7.5,6.2,7.5S280.4,20.4,280.4,15.9z M300,49.8c0,5.9-3.5,9.9-8.9,9.9s-8.8-4-8.8-9.9s3.5-9.9,8.9-9.9
	C296.6,39.9,300,43.9,300,49.8z M297.3,49.8c0-4.6-2.4-7.5-6.2-7.5c-3.8,0-6.2,2.9-6.2,7.5s2.4,7.5,6.2,7.5
	C294.9,57.4,297.3,54.4,297.3,49.8z M238.6,59.4h2.6V40.3h-2.6V59.4z M198.8,20.2c0-2.9-1.3-4.1-5-5.8c-2.9-1.3-3.7-2-3.7-3.5
	c0-1.4,1-2.6,3.2-2.6c1.5,0,3,0.6,4,1.4l0.4-2.6c-1.1-0.6-2.5-1.1-4.4-1.1c-3.5,0-5.9,2-5.9,5c0,2.7,1.4,3.9,5,5.6
	c2.9,1.3,3.7,2,3.7,3.8c0,1.9-1.4,2.9-3.4,2.9c-1.9,0-3.7-0.8-5-1.6l-0.4,2.7c1.4,0.7,3.3,1.2,5.4,1.2
	C196.3,25.6,198.8,23.5,198.8,20.2z M183.8,40.2l7.4,18.8l-2.5,0.6l-2.3-5.9h-7.9l-2.2,5.7h-2.6l7.5-19.2
	C181.2,40.2,183.8,40.2,183.8,40.2z M185.5,51.4l-3.1-8l-3.1,8H185.5z M208.7,54.6l-10.2-14.3h-2.3v19.1h2.4V44.5l10.6,14.8h2v-19
	h-2.4v14.3H208.7z M179.4,25.6l-5.9-8.2h-2v8h-2.6V6.3h5.2c3.9,0,6.4,1.9,6.4,5.4c0,2.9-1.7,4.6-4.2,5.3l5.7,8L179.4,25.6z
	 M173.8,15.2c2.5,0,4.2-1.1,4.2-3.3c0-2.1-1.3-3.3-3.9-3.3h-2.5v6.6H173.8z M221.1,25.4h2.6V8.7h6.3l-0.4-2.4H215v2.4h6.1V25.4z
	 M226.2,57.3c-3.9,0-6.2-2.9-6.2-7.5s2.3-7.5,6.2-7.5c2.1,0,3.7,0.8,5.1,1.9l0.4-2.7c-1.5-1-3.2-1.6-5.5-1.6c-5.4,0-8.9,4-8.9,9.9
	s3.5,9.9,8.9,9.9c2.2,0,4.3-0.8,5.8-1.9l-0.4-2.5C230.1,56.5,228.3,57.3,226.2,57.3z"/>
</svg>
