<?xml version="1.0" encoding="utf-8"?>
<!-- Generator: Adobe Illustrator 26.0.3, SVG Export Plug-In . SVG Version: 6.00 Build 0)  -->
<svg version="1.1" id="youtube" xmlns="http://www.w3.org/2000/svg" xmlns:xlink="http://www.w3.org/1999/xlink" x="0px" y="0px"
	 viewBox="0 0 26 17.8" enable-background="new 0 0 26 17.8" xml:space="preserve">
<path fill-rule="evenodd" clip-rule="evenodd" d="M25.5,3.8c0,0-0.3-1.7-1.1-2.5c-1-1.1-2.1-1.1-2.6-1.1
	c-3.5-0.3-9-0.3-9-0.3l0,0c0,0-5.4,0-9,0.3c-0.6,0-1.6,0-2.7,1.1c-0.8,0.8-1,2.5-1,2.5S0,5.8,0,7.9v1.9c0,2,0.3,4.1,0.3,4.1
	s0.3,1.7,1.1,2.5c1,1.1,2.3,1,2.9,1.1c2.1,0.2,8.8,0.3,8.8,0.3s5.4,0,9.1-0.3c0.5-0.1,1.6-0.1,2.6-1.1c0.8-0.8,1.1-2.5,1.1-2.5
	s0.3-2,0.3-4.1V7.9C25.8,5.8,25.5,3.8,25.5,3.8z M10.2,12.4V5.3l6.9,3.4L10.2,12.4z"/>
</svg>
